<svg width="66" height="89" viewBox="0 0 66 89" fill="none" xmlns="http://www.w3.org/2000/svg">
<path d="M54 32.649C54 36.7544 52.7684 40.7675 50.4608 44.1811C48.1533 47.5946 44.8736 50.2551 41.0363 51.8261C37.1991 53.3972 32.9767 53.8083 28.9031 53.0073C24.8295 52.2064 21.0877 50.2295 18.1508 47.3265C15.2138 44.4236 13.2138 40.725 12.4035 36.6985C11.5932 32.672 12.0091 28.4984 13.5985 24.7055C15.188 20.9126 17.8796 17.6708 21.333 15.39C24.7864 13.1091 28.8466 11.8917 33 11.8917C38.5695 11.8917 43.911 14.0787 47.8492 17.9714C51.7875 21.8641 54 27.1438 54 32.649ZM66 32.649C66.0007 37.4537 64.925 42.1991 62.8502 46.5442C60.7754 50.8893 57.753 54.7264 54 57.78V86.0247C54 86.8111 53.6839 87.5654 53.1213 88.1215C52.5587 88.6776 51.7956 88.99 51 88.99C50.5346 88.9802 50.0758 88.8794 49.65 88.6934L33 80.4276L16.35 88.6934C15.8903 88.9179 15.38 89.0221 14.8679 88.9961C14.3559 88.9702 13.8591 88.8149 13.425 88.5452C12.9874 88.2826 12.6261 87.9123 12.3763 87.4706C12.1266 87.0289 11.9969 86.5307 12 86.0247V57.78C7.70974 54.2817 4.38362 49.7683 2.3306 44.6591C0.277578 39.5499 -0.435731 34.0107 0.256936 28.5561C0.949603 23.1015 3.02577 17.9084 6.29258 13.4593C9.55938 9.01011 13.9108 5.44925 18.9427 3.10746C23.9746 0.765681 29.5236 -0.281049 35.0743 0.0645122C40.6251 0.410073 45.9974 2.13671 50.6922 5.08404C55.3871 8.03136 59.2521 12.1037 61.9284 16.9229C64.6046 21.742 66.0052 27.1515 66 32.649ZM60 32.649C60 27.3706 58.4165 22.2108 55.4497 17.822C52.4829 13.4332 48.266 10.0125 43.3324 7.99261C38.3988 5.97267 32.97 5.44416 27.7326 6.47392C22.4951 7.50367 17.6841 10.0454 13.9081 13.7778C10.1321 17.5102 7.56059 22.2655 6.51879 27.4424C5.47699 32.6194 6.01168 37.9854 8.05525 42.862C10.0988 47.7385 13.5595 51.9066 17.9996 54.8391C22.4397 57.7716 27.6599 59.3368 33 59.3368C40.1578 59.327 47.0196 56.5121 52.0809 51.5093C57.1422 46.5065 59.9901 39.724 60 32.649Z" fill="#4BBD99"/>
</svg>
