<svg width="80" height="77" viewBox="0 0 80 77" fill="none" xmlns="http://www.w3.org/2000/svg">
<path d="M13.7514 0L9.72857 4.07107L15.7143 10.1342L19.7314 6.06317L13.7486 0H13.7514ZM66.2514 0L60.2657 6.06317L64.2857 10.1342L70.2686 4.07397L66.2486 0H66.2514ZM40 1.80679C39.0571 1.81837 38.1029 1.87339 37.1429 1.9921C37.1143 1.9921 37.0857 1.98631 37.0571 1.9921C25.4686 3.33851 16.2457 12.8271 14.6429 24.5191C13.3629 33.9295 17.1914 42.4625 23.5714 47.9581C26.1812 50.2153 27.9464 53.3127 28.5714 56.7315V74.1045H35.0857C36.08 75.8331 37.8943 77 40 77C42.1057 77 43.92 75.8331 44.9143 74.1045H51.4286V62.5225H51.6971V59.0827C51.6971 54.8379 53.8743 50.5583 57.4114 47.2314C62.1429 42.4306 65.7143 35.6117 65.7143 27.7794C65.7143 13.4756 54.0971 1.6736 40 1.80679ZM40 7.59779C51.0429 7.44143 60 16.6028 60 27.7794C60 33.8426 57.2286 39.1819 53.3914 43.0676L53.4829 43.1603C49.6696 46.7238 47.2039 51.5248 46.5114 56.7344H34.0143C33.3857 51.7715 31.2857 46.9679 27.3171 43.5222C22.2686 39.179 19.26 32.6352 20.2657 25.2459C21.5143 16.125 28.8171 8.79073 37.7657 7.786C38.5045 7.68161 39.2486 7.61974 39.9943 7.60068L40 7.59779ZM0 27.7794V33.5704H8.57143V27.7794H0ZM71.4286 27.7794V33.5704H80V27.7794H71.4286ZM15.7143 51.2156L9.73143 57.2759L13.7514 61.3498L19.7286 55.2867L15.7143 51.2156ZM64.2857 51.2156L60.2686 55.2867L66.2486 61.3498L70.2686 57.2759L64.2857 51.2156ZM34.2857 62.5254H45.7143V68.3164H34.2857V62.5254Z" fill="#4BBD99"/>
</svg>
