<svg width="16" height="18" viewBox="0 0 16 18" fill="none" xmlns="http://www.w3.org/2000/svg">
<path d="M14.2222 18H1.77778C1.30628 18 0.854097 17.8104 0.520699 17.4728C0.187301 17.1352 0 16.6774 0 16.2V3.6C0 3.12261 0.187301 2.66477 0.520699 2.32721C0.854097 1.98964 1.30628 1.8 1.77778 1.8H3.55556V0H5.33333V1.8H10.6667V0H12.4444V1.8H14.2222C14.6937 1.8 15.1459 1.98964 15.4793 2.32721C15.8127 2.66477 16 3.12261 16 3.6V16.2C16 16.6774 15.8127 17.1352 15.4793 17.4728C15.1459 17.8104 14.6937 18 14.2222 18ZM1.77778 7.2V16.2H14.2222V7.2H1.77778ZM1.77778 3.6V5.4H14.2222V3.6H1.77778ZM12.4444 14.4H10.6667V12.6H12.4444V14.4ZM8.88889 14.4H7.11111V12.6H8.88889V14.4ZM5.33333 14.4H3.55556V12.6H5.33333V14.4ZM12.4444 10.8H10.6667V9H12.4444V10.8ZM8.88889 10.8H7.11111V9H8.88889V10.8ZM5.33333 10.8H3.55556V9H5.33333V10.8Z" fill="white"/>
</svg>
