<svg width="15" height="13" viewBox="0 0 15 13" fill="none" xmlns="http://www.w3.org/2000/svg">
<path d="M13.9214 2.94208C13.7068 2.45043 13.3974 2.00491 13.0104 1.63044C12.6231 1.25486 12.1665 0.956397 11.6654 0.751271C11.1458 0.537723 10.5885 0.428417 10.0258 0.429699C9.23642 0.429699 8.46625 0.643552 7.79697 1.0475C7.63685 1.14413 7.48474 1.25026 7.34063 1.3659C7.19653 1.25026 7.04442 1.14413 6.8843 1.0475C6.21501 0.643552 5.44485 0.429699 4.65547 0.429699C4.08706 0.429699 3.53626 0.537417 3.01588 0.751271C2.51311 0.957203 2.05998 1.25343 1.67089 1.63044C1.28341 2.00449 0.97387 2.45012 0.759829 2.94208C0.537267 3.45374 0.423584 3.99709 0.423584 4.55627C0.423584 5.08378 0.532463 5.63346 0.748621 6.19265C0.929553 6.65996 1.18894 7.14469 1.52038 7.63417C2.04557 8.4088 2.76769 9.21669 3.66435 10.0357C5.15023 11.3932 6.62171 12.331 6.68415 12.369L7.06363 12.6098C7.23175 12.716 7.44791 12.716 7.61603 12.6098L7.99551 12.369C8.05796 12.3294 9.52783 11.3932 11.0153 10.0357C11.912 9.21669 12.6341 8.4088 13.1593 7.63417C13.4907 7.14469 13.7517 6.65996 13.931 6.19265C14.1472 5.63346 14.2561 5.08378 14.2561 4.55627C14.2577 3.99709 14.144 3.45374 13.9214 2.94208Z" fill="#F24E1E"/>
</svg>
