<svg width="15" height="13" viewBox="0 0 15 13" fill="none" xmlns="http://www.w3.org/2000/svg">
<path d="M3.42529 11.5076V8.6393H3.43069V11.1467V11.6389C3.42812 11.6167 3.42529 11.5765 3.42529 11.5076ZM3.56975 11.6492C3.52609 11.6492 3.49386 11.6481 3.47033 11.6467H3.93069H13.9847H14.4452C14.4215 11.6481 14.3892 11.6492 14.3456 11.6492H3.56975ZM14.4901 11.5066C14.4901 11.578 14.4872 11.6185 14.4847 11.6404V11.1467V4.12942V3.63537C14.4872 3.65763 14.4901 3.69841 14.4901 3.76954V11.5066ZM14.3456 3.62695C14.3893 3.62695 14.4215 3.62802 14.445 3.62942H13.9847H12.4739V3.62695H14.3456Z" stroke="#00C398"/>
<path d="M12.4739 1.12161V0.637219C12.4762 0.660945 12.4783 0.699854 12.4783 0.761723V1.26172H12.4793V8.49878C12.4793 8.57017 12.4765 8.61072 12.4739 8.63255V8.13889V1.12161ZM11.9739 8.63889H12.4345C12.4108 8.6403 12.3785 8.64136 12.3349 8.64136H1.55901C1.51535 8.64136 1.48312 8.6403 1.45959 8.63889H1.91995H11.9739ZM1.41995 8.13889V8.63108C1.41738 8.60884 1.41455 8.56871 1.41455 8.49978V0.761723C1.41455 0.690327 1.41742 0.64977 1.41995 0.627942V1.12161V8.13889ZM1.91995 0.62161H1.4608C1.48409 0.620197 1.51566 0.619141 1.55801 0.619141H12.3339C12.3775 0.619141 12.4098 0.620203 12.4333 0.62161H11.9739H1.91995Z" stroke="#00C398"/>
<path d="M6.94691 6.63735C6.41242 6.63735 5.90013 6.42563 5.52263 6.04924C5.14519 5.67289 4.93341 5.16277 4.93341 4.63117C4.93341 4.09957 5.14519 3.58945 5.52263 3.21311C5.90013 2.83672 6.41242 2.625 6.94691 2.625C7.48139 2.625 7.99369 2.83672 8.37118 3.21311C8.74862 3.58945 8.9604 4.09957 8.9604 4.63117C8.9604 5.16277 8.74862 5.67289 8.37118 6.04924C7.99369 6.42563 7.48139 6.63735 6.94691 6.63735ZM6.94691 6.63488C7.47902 6.63488 7.98963 6.42413 8.36633 6.04852C8.74308 5.67287 8.95501 5.16306 8.95501 4.63117C8.95501 4.09929 8.74308 3.58948 8.36633 3.21382C7.98963 2.83822 7.47902 2.62747 6.94691 2.62747C6.4148 2.62747 5.90419 2.83822 5.52748 3.21382C5.15073 3.58948 4.93881 4.09929 4.93881 4.63117C4.93881 5.16306 5.15073 5.67287 5.52748 6.04852C5.90419 6.42413 6.4148 6.63488 6.94691 6.63488Z" stroke="#00C398"/>
</svg>
