<svg width="18" height="20" viewBox="0 0 18 20" fill="none" xmlns="http://www.w3.org/2000/svg">
<path d="M13.5816 13.3484L18 17.6147L16.1925 19.3842L11.5732 14.8998C10.4435 15.5058 9.13808 15.8452 7.78243 15.8452C3.48954 15.8452 0 12.4758 0 8.33078C0 4.18576 3.48954 0.816406 7.78243 0.816406C12.0753 0.816406 15.59 4.18576 15.59 8.33078C15.59 10.27 14.8117 12.0395 13.5816 13.3484ZM2.58577 8.33078C2.58577 11.1184 4.8954 13.3484 7.78243 13.3484C10.6695 13.3484 12.9791 11.1184 12.9791 8.33078C12.9791 5.54319 10.6695 3.31312 7.78243 3.31312C4.8954 3.31312 2.58577 5.54319 2.58577 8.33078Z" fill="#007E94"/>
</svg>
