<svg width="160" height="47" viewBox="0 0 160 47" fill="none" xmlns="http://www.w3.org/2000/svg"><path d="M75.973 7.282h-6.305v15.174H63.66V7.282h-6.28V5.045h18.594v2.237Zm28.725 11.747c0 2.171-1.343 3.427-4.028 3.427H88.453c-2.661 0-4.028-1.256-4.028-3.427V8.472c0-2.132 1.355-3.427 4.028-3.427h12.217c2.685 0 4.028 1.243 4.028 3.427V19.03ZM98.692 8.21c0-.628-.36-.93-1.091-.93h-6.067c-.73 0-1.09.302-1.09.93v11.092c0 .68.36.93 1.09.93H97.6c.732 0 1.092-.302 1.092-.93V8.211Zm35.137 11.028c0 1.845-1.295 3.218-3.956 3.218h-15.909V5.045h15.909c2.422 0 3.956 1.138 3.956 3.27v2.695c-.084 1.95-1.031 2.368-4.544 2.525v.078c3.537.196 4.448.523 4.544 2.564v3.061ZM128.015 8.42c0-.798-.276-1.138-1.043-1.138h-7.001v5.285h7.001c.743 0 1.043-.367 1.043-1.112V8.42Zm0 7.495c0-.797-.276-1.138-1.043-1.138h-7.001v5.442h7.001c.743 0 1.043-.366 1.043-1.112v-3.192ZM160 22.456h-16.903V5.045H160v2.237h-10.897v5.285h9.902v2.223h-9.902v5.43H160v2.236Z" fill="#007E94"/><path d="M93.043 46.909h-2.559V34.686c0-.753-.242-1.138-1.25-1.138h-6.032c-.915 0-1.214.25-1.214 1.021v12.323h-2.54V32.074H89.57c.878 0 1.569.05 2.073.117.504.084.878.302 1.083.62.206.335.336.92.336 1.775v12.323h-.018Zm20.224-13.612h-10.308v5.592h9.3v1.205h-9.3v6.798h-2.633V32.074h12.941v1.223Zm20.539-.002h-5.602v13.613h-2.633V33.295h-5.602V32.09h13.837v1.205Z" fill="#00C398"/><path d="M31.206 4.157c-.408 0-.684-.305-.684-.76V0H12.804L0 23.444l8.823 16.157V21.087h3.561c.408 0 .683.291.683.722l-.012 1.99h1.93c.396 0 .72.342.72.76v2.294h2.158c.431 0 .719.291.719.722v2.345h2.002V10.695h7.253V8.567h2.95v2.128h-.948 6.354V4.17h-4.987v-.012Z" fill="#00C297"/><path d="M40.688 4.154h-.203v18.768c0 .532-.408.963-.911.963h-3.37v-8.693h-11.34v5.221h6.09v3.764c0 .43-.288.722-.72.722h-5.37v11.76c0 .456-.276.76-.684.76h-3.56v-3.434h-2.698v-3.003h-2.84v-3.105h-2.027v19.009h25.356l12.803-23.444L40.688 4.154Z" fill="#007E94"/></svg>
