<svg width="32" height="32" viewBox="0 0 32 32" fill="none" xmlns="http://www.w3.org/2000/svg">
<path d="M31.3767 15.6659C31.3767 7.01662 24.3555 0 15.6883 0C7.0212 0 0 7.01116 0 15.6659C0 23.4852 5.73617 29.9667 13.2386 31.1407V20.1926H9.25771V15.6659H13.2386V12.2149C13.2386 8.2889 15.579 6.12111 19.1661 6.12111C20.8832 6.12111 22.6767 6.4269 22.6767 6.4269V10.2819H20.6972C18.7506 10.2819 18.1381 11.4887 18.1381 12.7282V15.6659H22.4908L21.7964 20.1926H18.1436V31.1407C25.6405 29.9612 31.3767 23.4852 31.3767 15.6659Z" fill="url(#paint0_linear_0_1)"/>
<path d="M21.7965 20.1926L22.4909 15.6659H18.1382V12.7282C18.1382 11.4887 18.7452 10.2819 20.6973 10.2819H22.6768V6.42688C22.6768 6.42688 20.8833 6.12109 19.1662 6.12109C15.5846 6.12109 13.2387 8.28888 13.2387 12.2149V15.6659H9.25781V20.1926H13.2387V31.1407C14.037 31.2663 14.8573 31.3318 15.6884 31.3318C16.5196 31.3318 17.3399 31.2663 18.1382 31.1407V20.1926H21.7965Z" fill="white"/>
<defs>
<linearGradient id="paint0_linear_0_1" x1="15.6883" y1="0" x2="15.6883" y2="31.1407" gradientUnits="userSpaceOnUse">
<stop stop-color="#00FFAE"/>
<stop offset="1" stop-color="#007E94"/>
</linearGradient>
</defs>
</svg>
