<svg width="32" height="32" viewBox="0 0 32 32" fill="none" xmlns="http://www.w3.org/2000/svg">
<path d="M15.6883 31.3318C24.3528 31.3318 31.3767 24.3179 31.3767 15.6659C31.3767 7.01386 24.3528 0 15.6883 0C7.02391 0 0 7.01386 0 15.6659C0 24.3179 7.02391 31.3318 15.6883 31.3318Z" fill="url(#paint0_linear_0_1)"/>
<path d="M15.6881 7.57892C18.3238 7.57892 18.6355 7.58984 19.6799 7.63898C20.6423 7.68267 21.1673 7.84102 21.5118 7.97753C21.9711 8.15772 22.2992 8.37068 22.6492 8.71468C22.9991 9.05869 23.2069 9.38631 23.3874 9.85045C23.5241 10.1999 23.6827 10.7187 23.7264 11.6797C23.7756 12.7172 23.7866 13.0339 23.7866 15.6658C23.7866 18.2977 23.7756 18.6089 23.7264 19.6519C23.6827 20.6129 23.5241 21.1371 23.3874 21.4811C23.2069 21.9398 22.9937 22.2674 22.6492 22.6169C22.3047 22.9609 21.9766 23.1738 21.5118 23.354C21.1618 23.4905 20.6423 23.6489 19.6799 23.6926C18.641 23.7417 18.3238 23.7526 15.6881 23.7526C13.0524 23.7526 12.7407 23.7417 11.6963 23.6926C10.7339 23.6489 10.209 23.4905 9.86446 23.354C9.40513 23.1738 9.07703 22.9609 8.72707 22.6169C8.38257 22.2729 8.16931 21.9452 7.98886 21.4811C7.85215 21.1316 7.69357 20.6129 7.64983 19.6519C7.60061 18.6144 7.58967 18.2977 7.58967 15.6658C7.58967 13.0339 7.60061 12.7226 7.64983 11.6797C7.69357 10.7187 7.85215 10.1945 7.98886 9.85045C8.16931 9.39177 8.38257 9.06415 8.72707 8.71468C9.07157 8.37068 9.39966 8.15772 9.86446 7.97753C10.2144 7.84102 10.7339 7.68267 11.6963 7.63898C12.7407 7.58984 13.0524 7.57892 15.6881 7.57892ZM15.6881 5.79883C13.0032 5.79883 12.6697 5.80975 11.6143 5.85889C10.5644 5.90804 9.84259 6.07185 9.21921 6.31756C8.56849 6.56874 8.0162 6.90729 7.46937 7.45333C6.92255 7.99937 6.58352 8.55087 6.33198 9.20066C6.08591 9.8286 5.92186 10.5439 5.87265 11.5923C5.82344 12.6462 5.8125 12.9793 5.8125 15.6603C5.8125 18.3414 5.82344 18.6745 5.87265 19.7283C5.92186 20.7767 6.08591 21.4975 6.33198 22.12C6.58352 22.7698 6.92255 23.3213 7.46937 23.8673C8.0162 24.4134 8.56849 24.7519 9.21921 25.0031C9.84805 25.2488 10.5644 25.4126 11.6143 25.4617C12.6697 25.5109 13.0032 25.5218 15.6881 25.5218C18.373 25.5218 18.7066 25.5109 19.762 25.4617C20.8119 25.4126 21.5337 25.2488 22.157 25.0031C22.8078 24.7519 23.36 24.4134 23.9069 23.8673C24.4537 23.3213 24.7927 22.7698 25.0443 22.12C25.2903 21.492 25.4544 20.7767 25.5036 19.7283C25.5528 18.6745 25.5637 18.3414 25.5637 15.6603C25.5637 12.9793 25.5528 12.6462 25.5036 11.5923C25.4544 10.5439 25.2903 9.82314 25.0443 9.20066C24.7927 8.55087 24.4537 7.99937 23.9069 7.45333C23.36 6.90729 22.8078 6.56874 22.157 6.31756C21.5282 6.07185 20.8119 5.90804 19.762 5.85889C18.7066 5.80975 18.373 5.79883 15.6881 5.79883Z" fill="white"/>
<path d="M15.6883 10.5996C12.8886 10.5996 10.6138 12.8657 10.6138 15.6669C10.6138 18.4626 12.8831 20.7341 15.6883 20.7341C18.488 20.7341 20.7628 18.4681 20.7628 15.6669C20.7628 12.8657 18.4935 10.5996 15.6883 10.5996ZM15.6883 18.954C13.8674 18.954 12.3964 17.4797 12.3964 15.6669C12.3964 13.8486 13.8728 12.3797 15.6883 12.3797C17.5092 12.3797 18.9802 13.854 18.9802 15.6669C18.9802 17.4797 17.5092 18.954 15.6883 18.954Z" fill="white"/>
<path d="M20.9649 11.5886C21.6203 11.5886 22.1515 11.0581 22.1515 10.4037C22.1515 9.74926 21.6203 9.21875 20.9649 9.21875C20.3096 9.21875 19.7783 9.74926 19.7783 10.4037C19.7783 11.0581 20.3096 11.5886 20.9649 11.5886Z" fill="white"/>
<defs>
<linearGradient id="paint0_linear_0_1" x1="15.6883" y1="0" x2="15.6883" y2="31.3318" gradientUnits="userSpaceOnUse">
<stop stop-color="#00FFAE"/>
<stop offset="1" stop-color="#007E94"/>
</linearGradient>
</defs>
</svg>
