<svg width="32" height="32" viewBox="0 0 32 32" fill="none" xmlns="http://www.w3.org/2000/svg">
<path d="M16.1542 31.3318C24.8186 31.3318 31.8425 24.3179 31.8425 15.6659C31.8425 7.01386 24.8186 0 16.1542 0C7.48973 0 0.46582 7.01386 0.46582 15.6659C0.46582 24.3179 7.48973 31.3318 16.1542 31.3318Z" fill="url(#paint0_linear_0_1)"/>
<path d="M26.6099 15.6656C26.6099 14.4043 25.5874 13.3832 24.3242 13.3832C23.7063 13.3832 23.1485 13.6289 22.7384 14.022C21.1745 12.8972 19.02 12.1655 16.6195 12.0836L17.6639 7.1856L21.0706 7.90637C21.1144 8.76912 21.8198 9.46259 22.6947 9.46259C23.5969 9.46259 24.3297 8.7309 24.3297 7.82993C24.3297 6.92896 23.5969 6.19727 22.6947 6.19727C22.0549 6.19727 21.5026 6.56858 21.2347 7.10916L17.4342 6.30101C17.3303 6.27917 17.2155 6.30101 17.128 6.35562C17.0351 6.41568 16.9749 6.50851 16.953 6.61226L15.7883 12.0727C13.3549 12.1382 11.1622 12.8699 9.58185 14.0056C9.17174 13.6125 8.61398 13.3668 8.00154 13.3668C6.73838 13.3668 5.71582 14.3879 5.71582 15.6492C5.71582 16.5775 6.27358 17.3747 7.06647 17.7296C7.03366 17.959 7.01179 18.1883 7.01179 18.4231C7.01179 21.9396 11.1075 24.7845 16.1601 24.7845C21.2128 24.7845 25.3085 21.9342 25.3085 18.4231C25.3085 18.1938 25.2921 17.9644 25.2538 17.7351C26.0522 17.3966 26.6099 16.5939 26.6099 15.6656ZM10.927 17.2983C10.927 16.3973 11.6598 15.6656 12.562 15.6656C13.4643 15.6656 14.197 16.3973 14.197 17.2983C14.197 18.1992 13.4643 18.9309 12.562 18.9309C11.6598 18.9255 10.927 18.1938 10.927 17.2983ZM20.0371 21.6065C18.9216 22.7205 16.7835 22.8078 16.1547 22.8078C15.5258 22.8078 13.3877 22.7205 12.2722 21.6065C12.1082 21.4427 12.1082 21.1752 12.2722 21.0059C12.4363 20.8421 12.7042 20.8421 12.8737 21.0059C13.5791 21.7103 15.0829 21.956 16.1547 21.956C17.2264 21.956 18.7302 21.7048 19.4356 21.0059C19.5997 20.8421 19.8676 20.8421 20.0371 21.0059C20.2012 21.1752 20.2012 21.4427 20.0371 21.6065ZM19.7473 18.9255C18.845 18.9255 18.1123 18.1938 18.1123 17.2928C18.1123 16.3918 18.845 15.6601 19.7473 15.6601C20.6496 15.6601 21.3823 16.3918 21.3823 17.2928C21.3823 18.1938 20.6496 18.9255 19.7473 18.9255Z" fill="white"/>
<defs>
<linearGradient id="paint0_linear_0_1" x1="16.1542" y1="0" x2="16.1542" y2="31.3318" gradientUnits="userSpaceOnUse">
<stop stop-color="#00FFAE"/>
<stop offset="1" stop-color="#007E94"/>
</linearGradient>
</defs>
</svg>
