<svg width="32" height="32" viewBox="0 0 32 32" fill="none" xmlns="http://www.w3.org/2000/svg"><path d="M15.688 31.332c8.665 0 15.689-7.014 15.689-15.666C31.377 7.014 24.353 0 15.688 0 7.024 0 0 7.014 0 15.666c0 8.652 7.024 15.666 15.688 15.666Z" fill="url(#a)"/><path d="m10.652 16.992-3.828-1.245s-.459-.186-.311-.606c.032-.088.093-.159.273-.29.848-.59 15.7-5.919 15.7-5.919s.42-.142.666-.049c.115.044.186.093.246.268.022.065.033.202.033.338 0 .098-.01.191-.021.333-.093 1.458-2.8 12.335-2.8 12.335s-.164.64-.744.661c-.213.005-.47-.033-.776-.3-1.138-.978-5.075-3.62-5.944-4.2a.158.158 0 0 1-.072-.114c-.01-.06.055-.137.055-.137s6.852-6.082 7.038-6.721c.016-.05-.039-.077-.11-.055-.453.17-8.344 5.144-9.219 5.695-.044.028-.186.006-.186.006Z" fill="#fff"/><defs><linearGradient id="a" x1="15.688" y1="0" x2="15.688" y2="31.332" gradientUnits="userSpaceOnUse"><stop stop-color="#00FFAE"/><stop offset="1" stop-color="#007E94"/></linearGradient></defs></svg>