<svg width="32" height="32" viewBox="0 0 32 32" fill="none" xmlns="http://www.w3.org/2000/svg">
<path d="M15.6883 31.3318C24.3528 31.3318 31.3767 24.3179 31.3767 15.6659C31.3767 7.01387 24.3528 0 15.6883 0C7.02391 0 0 7.01387 0 15.6659C0 24.3179 7.02391 31.3318 15.6883 31.3318Z" fill="url(#paint0_linear_0_1)"/>
<path d="M12.5221 24.6873C20.183 24.6873 24.3717 18.3478 24.3717 12.8546C24.3717 12.6744 24.3662 12.4942 24.3608 12.3195C25.1755 11.7298 25.8809 10.9981 26.4387 10.1681C25.6895 10.5012 24.8912 10.7196 24.0491 10.8234C24.9076 10.3101 25.5692 9.49102 25.8809 8.52453C25.0771 8.99959 24.1858 9.34905 23.2343 9.53471C22.4742 8.72657 21.3915 8.21875 20.194 8.21875C17.8919 8.21875 16.0272 10.0807 16.0272 12.3796C16.0272 12.7072 16.0655 13.0239 16.1366 13.3297C12.6752 13.155 9.60202 11.5005 7.55143 8.98321C7.19599 9.60023 6.9882 10.3101 6.9882 11.0745C6.9882 12.5161 7.72094 13.7938 8.84193 14.5364C8.1584 14.5146 7.51862 14.3289 6.95539 14.0177C6.95539 14.0341 6.95539 14.0505 6.95539 14.0723C6.95539 16.0872 8.39354 17.769 10.2965 18.1512C9.94652 18.2441 9.58014 18.2987 9.19737 18.2987C8.92942 18.2987 8.66695 18.2714 8.41541 18.2222C8.94583 19.8767 10.4824 21.078 12.3088 21.1108C10.8816 22.2247 9.088 22.8909 7.13584 22.8909C6.80228 22.8909 6.46872 22.869 6.14062 22.8308C7.97795 23.9993 10.1652 24.6873 12.5221 24.6873Z" fill="white"/>
<defs>
<linearGradient id="paint0_linear_0_1" x1="15.6883" y1="0" x2="15.6883" y2="31.3318" gradientUnits="userSpaceOnUse">
<stop stop-color="#00FFAE"/>
<stop offset="1" stop-color="#007E94"/>
</linearGradient>
</defs>
</svg>
