<svg width="392" height="379" viewBox="0 0 392 379" fill="none" xmlns="http://www.w3.org/2000/svg"><path d="M225.81 104.441c-21.898 14.202-49.38 11.069-67.052-3.693-2.646-2.212-6.245-2.122-9.037-.068l-41.252 30.502-14.285 10.576a39.948 39.948 0 0 0-9.98-15.818l13.927-10.306c.09-.067 39.906-29.537 40.007-29.581 2.063-1.033 3.431-3.525 3.734-5.726.37-2.66-.942-4.883-1.66-7.353-6.996-23.508 1.918-49.744 23.57-63.8 26.361-17.086 61.602-9.62 78.724 16.683 17.145 26.337 9.632 61.52-16.696 78.584Z" fill="url(#a)"/><path d="M222.29 84.032a39.014 39.014 0 0 0 9.463-15.66s60.942 44.175 60.953 44.197c2.052 1.471 4.754 1.953 7.299 1.022a7.216 7.216 0 0 0 1.223-.573c19.992-16.02 49.123-16.413 69.676.55 12.154 10.036 18.927 24.182 19.958 38.776.976 13.662-3.072 27.729-12.468 39.135-9.396 11.406-22.392 18.085-35.982 19.747-39.39 4.793-70.181-32.085-60.022-69.502 1.29-4.76 4.979-9.79.247-13.932l-60.347-43.76Z" fill="url(#b)"/><path d="M275.315 378.06c-19.858-4.041-33.986-16.121-41.443-31.871-6.458-13.674-7.512-29.89-1.625-45.13 9.497-24.597 34.086-38.854 59.068-36.34.875.09 2.377-1.19 2.961-1.717a8.365 8.365 0 0 0 2.433-4.21c.011-.023.011-.034.011-.068l21.921-68.716a37.89 37.89 0 0 0 17.391 4.199c.359 0 .706 0 1.065-.011 0 0-22.627 70.95-22.639 70.961-.784 2.492-.37 5.31 1.368 7.511.292.381.617.707.965 1.021 20.642 13.404 30.622 38.944 24.006 63.114a57.643 57.643 0 0 1-1.839 5.569c-5.886 15.234-17.559 26.505-31.53 32.275-9.957 4.12-21.08 5.445-32.113 3.413Z" fill="url(#c)"/><path d="M325.559 321.378c0 21.802-17.66 39.472-39.424 39.472-18.893 0-34.67-13.292-38.527-31.052a39.96 39.96 0 0 1 .538-19.04c4.642-16.637 19.892-28.851 37.989-28.851 21.764 0 39.424 17.67 39.424 39.471Z" fill="#fff"/><path d="m248.146 310.758-76.672.258-.023.023c-2.635-.011-5.55-1.055-6.806-3.604-.583-1.167-10.775-41.582-53.305-43.973-31.89-1.797-59.08 22.632-60.874 54.425-1.682 29.648 19.285 55.323 47.833 60.206 2.142.371 4.317.618 6.537.741 24.769 1.392 50.043-12.517 59.417-44.411.605-1.156 1.468-2.189 2.623-2.964 2.064-1.38 5.383-1.392 5.383-1.392l75.349-.269a39.96 39.96 0 0 1 .538-19.04Z" fill="url(#d)"/><path d="M112.472 360.726c-21.831 2.425-41.487-13.325-43.92-35.183-1.94-17.479 7.748-33.578 22.862-40.56a39.58 39.58 0 0 1 12.29-3.413 38.63 38.63 0 0 1 6.223-.202c19.23.864 35.499 15.627 37.686 35.385 2.422 21.858-13.31 41.549-35.141 43.973Z" fill="#fff"/><path d="M68.305 218.433c-1.592-4.299-2.669-5.343-3.42-5.871-1.637-1.123-3.341-1.426-5.281-1.325-30.219 1.538-56.49-21.027-59.36-51.506-2.378-25.506 12.827-50.283 38.1-58.961 21.787-7.476 44.997-.92 59.787 14.864L84.204 125.94a39.955 39.955 0 0 1 9.98 15.818l14.285-10.576a54.75 54.75 0 0 1 1.94 4.895c8.645 25.271-1.525 52.438-23.031 66.224-.976.629-1.648 2.38-1.929 3.447-.47 1.773-.336 3.682.415 5.355l24.063 70.265c-6.067-.303-12.559.864-18.513 3.615l-23.11-66.55Z" fill="url(#e)"/><path d="M231.753 68.371a39.013 39.013 0 0 1-9.463 15.661 38.75 38.75 0 0 1-20.262 10.833c-21.136 4.11-41.588-9.722-45.681-30.883-4.103-21.162 9.711-41.639 30.847-45.736 21.136-4.098 41.588 9.722 45.681 30.883a38.712 38.712 0 0 1-1.122 19.242Zm142.369 87.689c0 20.712-16.483 37.574-37.025 38.135-.359.012-.706.012-1.065.012a37.89 37.89 0 0 1-17.391-4.199c-12.301-6.32-20.71-19.152-20.71-33.948 0-21.061 17.055-38.136 38.101-38.136 21.035 0 38.09 17.075 38.09 38.136Zm-277.808-1.37c0 22.183-17.962 40.157-40.119 40.157-22.156 0-40.12-17.974-40.12-40.157 0-22.183 17.964-40.168 40.12-40.168 10.899 0 20.777 4.345 28.01 11.418a39.952 39.952 0 0 1 9.979 15.817 40.102 40.102 0 0 1 2.13 12.933Z" fill="#fff"/><path d="m184.749 55.147-2.276 8.621h-2.556l-1.536-5.613h-.023l-1.469 5.613h-2.612l-2.4-8.621h2.613l1.783 6.758h.022l1.772-6.758h1.996l1.782 6.758h.023l1.704-6.758h1.177Z" fill="url(#f)"/><path d="M194.392 62.073c0 1.078-.56 1.695-1.693 1.695h-5.146c-1.122 0-1.694-.628-1.694-1.695v-5.231c0-1.056.572-1.695 1.694-1.695h5.146c1.133 0 1.693.617 1.693 1.695v5.231Zm-2.522-5.355c0-.314-.146-.46-.46-.46h-2.557c-.314 0-.459.146-.459.46v5.49c0 .337.145.46.459.46h2.557c.314 0 .46-.146.46-.46v-5.49Z" fill="url(#g)"/><path d="M204.136 62.073c0 1.078-.56 1.695-1.693 1.695h-5.146c-1.122 0-1.694-.628-1.694-1.695v-5.231c0-1.056.572-1.695 1.694-1.695h5.146c1.133 0 1.693.617 1.693 1.695v5.231Zm-2.523-5.355c0-.314-.145-.46-.459-.46h-2.557c-.314 0-.46.146-.46.46v5.49c0 .337.146.46.46.46h2.557c.314 0 .459-.146.459-.46v-5.49Z" fill="url(#h)"/><path d="M213.88 62.073c0 1.078-.56 1.695-1.693 1.695h-6.84v-8.621h6.84c1.133 0 1.693.617 1.693 1.695v5.231Zm-2.523-5.355c0-.314-.145-.46-.459-.46l-3.017.011v6.4h3.017c.314 0 .459-.147.459-.461v-5.49Z" fill="url(#i)"/><path d="M329.921 152.535h-4.597v2.615h4.171v1.101h-4.171v3.805h-2.534v-8.621h7.12v1.1h.011Z" fill="url(#j)"/><path d="M333.554 160.056h-2.534v-8.621h2.534v8.621Z" fill="url(#k)"/><path d="M343.298 160.056h-2.647l-1.48-3.805h-1.883v3.805h-2.534v-8.621h6.705c1.121 0 1.67.662 1.67 1.605v1.83c0 .831-.448 1.302-1.334 1.426l1.503 3.76Zm-2.613-6.971c0-.404-.123-.55-.471-.55h-2.926v2.615h2.926c.337 0 .471-.168.471-.583v-1.482Z" fill="url(#l)"/><path d="M351.472 160.056h-7.12v-8.621h7.12v1.1h-4.597v2.615h4.171v1.101h-4.171v2.694h4.597v1.111Z" fill="url(#m)"/><path d="M271.301 325.577h-7.12v-8.622h7.12v1.1h-4.597v2.616h4.171v1.1h-4.171v2.695h4.597v1.111Z" fill="url(#n)"/><path d="M282.222 325.577h-2.725l-1.076-2.459h-3.913l-1.066 2.459h-1.211l3.858-8.622h2.209l3.924 8.622Zm-4.294-3.559-1.469-3.255-1.447 3.255h2.916Z" fill="url(#o)"/><path d="M291.809 325.577h-2.646l-1.48-3.806h-1.884v3.806h-2.534v-8.622h6.705c1.121 0 1.671.662 1.671 1.605v1.83c0 .831-.449 1.303-1.335 1.426l1.503 3.761Zm-2.613-6.972c0-.404-.123-.55-.471-.55h-2.926v2.616h2.926c.337 0 .471-.168.471-.584v-1.482Z" fill="url(#p)"/><path d="M300.353 318.055h-2.657v7.522h-2.535v-7.522h-2.646v-1.1h7.827v1.1h.011Z" fill="url(#q)"/><path d="M309.682 325.577h-2.534v-3.806h-3.409v3.806h-2.534v-8.622h2.534v3.727h3.409v-3.727h2.534v8.622Z" fill="url(#r)"/><path d="M92.94 328.406h-2.557v-6.983c0-.404-.202-.606-.617-.595h-1.67a2.25 2.25 0 0 0-.483.045c-.145.023-.235.101-.257.225a1.875 1.875 0 0 0-.034.325v6.983h-2.557v-8.622h6.515c1.11 0 1.66.741 1.66 2.234v6.388Zm5.617 0h-2.556v-6.983c0-.404-.202-.606-.617-.595h-1.67a2.25 2.25 0 0 0-.483.045c-.146.023-.235.101-.258.225a1.875 1.875 0 0 0-.034.325v6.983h-2.567v-8.622h6.514c1.11 0 1.66.741 1.66 2.234v6.388h.011Z" fill="url(#s)"/><path d="M106.675 328.406h-7.12v-8.622h7.12v1.1h-4.597v2.616h4.171v1.1h-4.171v2.695h4.597v1.111Z" fill="url(#t)"/><path d="M115.275 320.896h-2.657v7.521h-2.534v-7.521h-2.646v-1.101h7.826v1.101h.011Z" fill="url(#u)"/><path d="M125.961 328.406h-2.725l-1.076-2.459h-3.913l-1.066 2.459h-1.211l3.858-8.622h2.209l3.924 8.622Zm-4.294-3.559-1.469-3.255-1.447 3.255h2.916Z" fill="url(#v)"/><path d="M134.135 328.406h-7.12v-8.622h2.534v7.522h4.597v1.1h-.011Z" fill="url(#w)"/><path d="m43.973 151.435-2.276 8.621h-2.556l-1.536-5.613h-.023l-1.469 5.613h-2.612l-2.4-8.621h2.613l1.782 6.758h.023l1.772-6.758h1.995l1.783 6.758h.023l1.704-6.758h1.177Z" fill="url(#x)"/><path d="M54.895 160.056H52.17l-1.077-2.458H47.18l-1.065 2.458h-1.211l3.857-8.621h2.209l3.925 8.621Zm-4.284-3.558-1.469-3.256-1.446 3.256h2.915Z" fill="url(#y)"/><path d="M63.45 152.535h-2.658v7.521h-2.534v-7.521h-2.646v-1.1h7.827v1.1h.01Z" fill="url(#z)"/><path d="M71.445 160.056h-7.12v-8.621h7.12v1.1h-4.598v2.615h4.172v1.101h-4.172v2.694h4.598v1.111Z" fill="url(#A)"/><path d="M81.088 160.056H78.44l-1.48-3.805h-1.883v3.805h-2.535v-8.621h6.706c1.121 0 1.67.662 1.67 1.605v1.83c0 .831-.448 1.302-1.334 1.426l1.503 3.76Zm-2.613-6.971c0-.404-.123-.55-.47-.55h-2.927v2.615h2.926c.337 0 .471-.168.471-.583v-1.482Z" fill="url(#B)"/><path d="m185.859 148.763-4.843-15.975-13.445 10.653 7.278 2.111-34.984 116.753 3.98 1.19 34.984-116.776 7.03 2.044Z" fill="#fff"/><path d="m252.127 181.7 13.87-9.261-14.061-9.812.079 7.589-121.748.202.011 4.154 121.77-.202.079 7.33Z" fill="#fff"/><path d="m213.88 148.763 4.844-15.975 13.444 10.653-7.277 2.111 34.984 116.753-3.969 1.19-34.995-116.776-7.031 2.044Z" fill="#fff"/><path d="m179.188 264.09-16.629-1.291 7.49-15.436 3.633 6.657 106.309-59.398 2.018 3.626-106.331 59.421 3.51 6.421Z" fill="#fff"/><path d="m134.965 203.008-6.605-15.324 17.133-.561-4.193 6.32 102.07 66.449-2.265 3.48-102.093-66.471-4.047 6.107Z" fill="#fff"/><defs><linearGradient id="a" x1="84.201" y1="70.882" x2="251.711" y2="70.882" gradientUnits="userSpaceOnUse"><stop stop-color="#16AA00"/><stop offset=".556" stop-color="#00F7BD"/><stop offset="1" stop-color="#00F7BD"/></linearGradient><linearGradient id="b" x1="222.287" y1="140.012" x2="391.001" y2="140.012" gradientUnits="userSpaceOnUse"><stop stop-color="red"/><stop offset="1" stop-color="#FF661E"/></linearGradient><linearGradient id="c" x1="228.373" y1="284.506" x2="342.821" y2="284.506" gradientUnits="userSpaceOnUse"><stop stop-color="#551E00"/><stop offset="1" stop-color="#D46400"/></linearGradient><linearGradient id="d" x1="127.377" y1="236.485" x2="168.466" y2="392.436" gradientUnits="userSpaceOnUse"><stop stop-color="#E3FBFB"/><stop offset=".554" stop-color="gray"/><stop offset="1" stop-color="#F0F0F0"/></linearGradient><linearGradient id="e" x1="-.003" y1="191.337" x2="113.482" y2="191.337" gradientUnits="userSpaceOnUse"><stop stop-color="#0DC3FD"/><stop offset="1" stop-color="#0056E9"/></linearGradient><linearGradient id="f" x1="171.879" y1="59.462" x2="184.753" y2="59.462" gradientUnits="userSpaceOnUse"><stop stop-color="#00C297"/><stop offset=".556" stop-color="#00F7BD"/><stop offset="1" stop-color="#00F7BD"/></linearGradient><linearGradient id="g" x1="185.861" y1="59.462" x2="194.395" y2="59.462" gradientUnits="userSpaceOnUse"><stop stop-color="#00C297"/><stop offset=".556" stop-color="#00F7BD"/><stop offset="1" stop-color="#00F7BD"/></linearGradient><linearGradient id="h" x1="195.604" y1="59.462" x2="204.139" y2="59.462" gradientUnits="userSpaceOnUse"><stop stop-color="#00C297"/><stop offset=".556" stop-color="#00F7BD"/><stop offset="1" stop-color="#00F7BD"/></linearGradient><linearGradient id="i" x1="205.348" y1="59.462" x2="213.883" y2="59.462" gradientUnits="userSpaceOnUse"><stop stop-color="#00C297"/><stop offset=".556" stop-color="#00F7BD"/><stop offset="1" stop-color="#00F7BD"/></linearGradient><linearGradient id="j" x1="322.797" y1="155.743" x2="329.919" y2="155.743" gradientUnits="userSpaceOnUse"><stop stop-color="#F06"/><stop offset="1" stop-color="#FF661E"/></linearGradient><linearGradient id="k" x1="331.029" y1="155.743" x2="333.558" y2="155.743" gradientUnits="userSpaceOnUse"><stop stop-color="#F06"/><stop offset="1" stop-color="#FF661E"/></linearGradient><linearGradient id="l" x1="334.767" y1="155.743" x2="343.302" y2="155.743" gradientUnits="userSpaceOnUse"><stop stop-color="#F06"/><stop offset="1" stop-color="#FF661E"/></linearGradient><linearGradient id="m" x1="344.346" y1="155.743" x2="351.468" y2="155.743" gradientUnits="userSpaceOnUse"><stop stop-color="#F06"/><stop offset="1" stop-color="#FF661E"/></linearGradient><linearGradient id="n" x1="264.182" y1="321.261" x2="271.304" y2="321.261" gradientUnits="userSpaceOnUse"><stop stop-color="#551E00"/><stop offset="1" stop-color="#D46400"/></linearGradient><linearGradient id="o" x1="272.243" y1="321.261" x2="282.223" y2="321.261" gradientUnits="userSpaceOnUse"><stop stop-color="#551E00"/><stop offset="1" stop-color="#D46400"/></linearGradient><linearGradient id="p" x1="283.274" y1="321.261" x2="291.809" y2="321.261" gradientUnits="userSpaceOnUse"><stop stop-color="#551E00"/><stop offset="1" stop-color="#D46400"/></linearGradient><linearGradient id="q" x1="292.518" y1="321.261" x2="300.349" y2="321.261" gradientUnits="userSpaceOnUse"><stop stop-color="#551E00"/><stop offset="1" stop-color="#D46400"/></linearGradient><linearGradient id="r" x1="301.223" y1="321.261" x2="309.686" y2="321.261" gradientUnits="userSpaceOnUse"><stop stop-color="#551E00"/><stop offset="1" stop-color="#D46400"/></linearGradient><linearGradient id="s" x1="85.236" y1="324.098" x2="141.37" y2="324.098" gradientUnits="userSpaceOnUse"><stop stop-color="gray"/><stop offset=".554" stop-color="gray"/><stop offset="1" stop-color="#F0F0F0"/></linearGradient><linearGradient id="t" x1="85.237" y1="324.098" x2="141.37" y2="324.098" gradientUnits="userSpaceOnUse"><stop stop-color="gray"/><stop offset=".554" stop-color="gray"/><stop offset="1" stop-color="#F0F0F0"/></linearGradient><linearGradient id="u" x1="85.237" y1="324.098" x2="141.37" y2="324.098" gradientUnits="userSpaceOnUse"><stop stop-color="gray"/><stop offset=".554" stop-color="gray"/><stop offset="1" stop-color="#F0F0F0"/></linearGradient><linearGradient id="v" x1="85.236" y1="324.098" x2="141.37" y2="324.098" gradientUnits="userSpaceOnUse"><stop stop-color="gray"/><stop offset=".554" stop-color="gray"/><stop offset="1" stop-color="#F0F0F0"/></linearGradient><linearGradient id="w" x1="85.236" y1="324.098" x2="141.37" y2="324.098" gradientUnits="userSpaceOnUse"><stop stop-color="gray"/><stop offset=".554" stop-color="gray"/><stop offset="1" stop-color="#F0F0F0"/></linearGradient><linearGradient id="x" x1="31.101" y1="155.743" x2="43.972" y2="155.743" gradientUnits="userSpaceOnUse"><stop stop-color="#04006A"/><stop offset="1" stop-color="#0056E9"/></linearGradient><linearGradient id="y" x1="44.918" y1="155.743" x2="54.898" y2="155.743" gradientUnits="userSpaceOnUse"><stop stop-color="#04006A"/><stop offset="1" stop-color="#0056E9"/></linearGradient><linearGradient id="z" x1="55.614" y1="155.743" x2="63.445" y2="155.743" gradientUnits="userSpaceOnUse"><stop stop-color="#04006A"/><stop offset="1" stop-color="#0056E9"/></linearGradient><linearGradient id="A" x1="64.319" y1="155.743" x2="71.441" y2="155.743" gradientUnits="userSpaceOnUse"><stop stop-color="#04006A"/><stop offset="1" stop-color="#0056E9"/></linearGradient><linearGradient id="B" x1="72.551" y1="155.743" x2="81.085" y2="155.743" gradientUnits="userSpaceOnUse"><stop stop-color="#04006A"/><stop offset="1" stop-color="#0056E9"/></linearGradient></defs></svg>
