<svg width="53" height="53" viewBox="0 0 53 53" fill="none" xmlns="http://www.w3.org/2000/svg">
<path d="M22.8793 15.151L23.3437 15.1384H42.2733C44.3681 15.1383 46.3836 15.9395 47.9065 17.3779C49.4293 18.8164 50.3442 20.7829 50.4634 22.8743L50.4761 23.3412V27.2786C49.3495 26.1974 48.0747 25.2821 46.6902 24.5603V23.3412C46.6902 22.1698 46.2248 21.0463 45.3965 20.218C44.5682 19.3897 43.4447 18.9243 42.2733 18.9243H23.3437C22.2353 18.9244 21.1673 19.3412 20.3519 20.0921C19.5365 20.843 19.0332 21.873 18.942 22.9778L18.9269 23.3412V42.2707C18.927 43.3796 19.3441 44.4479 20.0956 45.2634C20.847 46.0789 21.8776 46.5819 22.9828 46.6725L23.3437 46.6876H24.5603C25.2847 48.0758 26.2008 49.3504 27.276 50.4735H23.3437C21.2485 50.4737 19.2327 49.6721 17.7097 48.2331C16.1868 46.7942 15.2722 44.827 15.1536 42.7352L15.141 42.2733V23.3437C15.1408 21.2485 15.9424 19.2327 17.3814 17.7097C18.8203 16.1868 20.7875 15.2722 22.8793 15.1536V15.151ZM34.2774 5.63329L34.4087 6.08002L36.1578 12.612H32.2381L30.754 7.05931C30.6041 6.49872 30.3451 5.97318 29.9919 5.51271C29.6388 5.05225 29.1984 4.66588 28.6958 4.37571C28.1933 4.08553 27.6385 3.89722 27.0631 3.82155C26.4878 3.74587 25.9032 3.78432 25.3427 3.93468L7.05931 8.83616C5.99201 9.12237 5.07075 9.79824 4.47735 10.7304C3.88395 11.6626 3.6615 12.7833 3.85391 13.8714L3.93468 14.245L8.83616 32.5284C9.06607 33.3875 9.54998 34.1572 10.2246 34.7368C10.8992 35.3164 11.733 35.6788 12.617 35.7767V39.5777C10.976 39.4799 9.40219 38.8916 8.09941 37.889C6.79664 36.8863 5.82495 35.5156 5.31022 33.9544L5.17898 33.5102L0.280017 15.2242C-0.262621 13.201 -0.0106493 11.0468 0.984266 9.20339C1.97918 7.35998 3.64164 5.96705 5.63076 5.31022L6.08002 5.17898L24.3634 0.280017C26.3867 -0.262621 28.5409 -0.0106493 30.3843 0.984266C32.2277 1.97918 33.6206 3.64164 34.2774 5.63076V5.63329ZM53 39.1183C53 35.4367 51.5375 31.9059 48.9342 29.3025C46.3308 26.6992 42.8 25.2367 39.1183 25.2367C35.4367 25.2367 31.9059 26.6992 29.3025 29.3025C26.6992 31.9059 25.2367 35.4367 25.2367 39.1183C25.2367 42.8 26.6992 46.3308 29.3025 48.9342C31.9059 51.5375 35.4367 53 39.1183 53C42.8 53 46.3308 51.5375 48.9342 48.9342C51.5375 46.3308 53 42.8 53 39.1183ZM38.8912 30.3022L39.1183 30.2846L39.3455 30.3048C39.5977 30.3508 39.8298 30.4726 40.0111 30.6538C40.1923 30.8351 40.3141 31.0672 40.3601 31.3194L40.3803 31.5465V37.8564L46.7028 37.8589L46.9299 37.8791C47.1821 37.9252 47.4142 38.0469 47.5955 38.2282C47.7767 38.4094 47.8985 38.6416 47.9446 38.8937L47.9647 39.1209L47.9446 39.348C47.8983 39.6005 47.7762 39.8329 47.5945 40.0142C47.4127 40.1955 47.18 40.317 46.9274 40.3626L46.7003 40.3828H40.3828V46.7003L40.3626 46.9274C40.3166 47.1796 40.1948 47.4117 40.0136 47.593C39.8323 47.7742 39.6002 47.896 39.348 47.942L39.1209 47.9622L38.8937 47.942C38.6416 47.896 38.4094 47.7742 38.2282 47.593C38.0469 47.4117 37.9252 47.1796 37.8791 46.9274L37.8589 46.7003V40.3803H31.5415L31.3143 40.3601C31.0622 40.3141 30.83 40.1923 30.6488 40.0111C30.4675 39.8298 30.3458 39.5977 30.2997 39.3455L30.2795 39.1183L30.2997 38.8912C30.3458 38.639 30.4675 38.4069 30.6488 38.2256C30.83 38.0444 31.0622 37.9226 31.3143 37.8766L31.5415 37.8564H37.8564V31.5465L37.8766 31.3194C37.9222 31.0668 38.0437 30.8341 38.225 30.6523C38.4063 30.4706 38.6387 30.3485 38.8912 30.3022Z" fill="#4BBD99"/>
</svg>
