<svg width="51" height="45" viewBox="0 0 51 45" fill="none" xmlns="http://www.w3.org/2000/svg">
<path d="M0 6.42857C0 4.72361 0.67165 3.08848 1.86719 1.88288C3.06274 0.677294 4.68424 0 6.375 0H44.625C46.3158 0 47.9373 0.677294 49.1328 1.88288C50.3284 3.08848 51 4.72361 51 6.42857V38.5714C51 40.2764 50.3284 41.9115 49.1328 43.1171C47.9373 44.3227 46.3158 45 44.625 45H6.375C4.68424 45 3.06274 44.3227 1.86719 43.1171C0.67165 41.9115 0 40.2764 0 38.5714V6.42857ZM3.1875 35.3571V38.5714C3.1875 39.4239 3.52333 40.2415 4.1211 40.8443C4.71887 41.4471 5.52962 41.7857 6.375 41.7857H44.625C45.4704 41.7857 46.2811 41.4471 46.8789 40.8443C47.4767 40.2415 47.8125 39.4239 47.8125 38.5714V27.3214L35.7733 21.0632C35.4744 20.9122 35.136 20.8598 34.8059 20.9135C34.4758 20.9671 34.1709 21.1241 33.9341 21.3621L22.1085 33.2871L13.6298 27.5914C13.3236 27.3859 12.9564 27.2935 12.5904 27.3298C12.2244 27.3661 11.8821 27.529 11.6216 27.7907L3.1875 35.3571ZM19.125 14.4643C19.125 13.1856 18.6213 11.9592 17.7246 11.055C16.8279 10.1508 15.6118 9.64286 14.3438 9.64286C13.0757 9.64286 11.8596 10.1508 10.9629 11.055C10.0662 11.9592 9.5625 13.1856 9.5625 14.4643C9.5625 15.743 10.0662 16.9694 10.9629 17.8736C11.8596 18.7777 13.0757 19.2857 14.3438 19.2857C15.6118 19.2857 16.8279 18.7777 17.7246 17.8736C18.6213 16.9694 19.125 15.743 19.125 14.4643Z" fill="#4BBD99"/>
</svg>
