<svg width="50" height="51" viewBox="0 0 50 51" fill="none" xmlns="http://www.w3.org/2000/svg">
<path d="M49.2169 37.0054C49.2028 36.981 49.1836 36.9612 49.1682 36.9381L49.1695 36.9375L31.9391 7.09469L31.9295 7.09981C31.7872 6.8729 31.5799 6.69413 31.3345 6.58683L31.3589 6.57275L26.2445 3.61914L31.9256 13.4592L44.848 35.8411L44.8467 35.8418C44.8621 35.8648 44.8813 35.8847 44.8954 35.909C45.0727 36.2165 45.1207 36.5817 45.0288 36.9246C44.937 37.2674 44.7127 37.5598 44.4055 37.7374L44.4144 37.7534L25.2909 48.7942L26.119 50.2281C26.1356 50.2633 26.1471 50.2998 26.167 50.3344C26.3397 50.6323 26.6208 50.852 26.9516 50.9476C27.2823 51.0432 27.6373 51.0073 27.9422 50.8474L27.9454 50.8525L48.7366 38.8491L48.7276 38.8331C49.0348 38.6555 49.2588 38.3633 49.3506 38.0205C49.4423 37.6778 49.3943 37.3127 49.2169 37.0054Z" fill="#4BBD99"/>
<path d="M39.9915 36.4789C40.2988 36.3013 40.523 36.009 40.6149 35.6661C40.7068 35.3233 40.6588 34.958 40.4814 34.6505C40.4673 34.6262 40.4481 34.6063 40.4328 34.5833L40.434 34.5827L23.2036 4.73984L23.194 4.74496C23.0518 4.51805 22.8444 4.33928 22.5991 4.23199L22.6234 4.2179L15.5724 0.146763V0.174942C15.3939 0.0732269 15.1944 0.0141208 14.9893 0.0022344C14.7842 -0.00965204 14.5792 0.0260024 14.3902 0.106417L14.3825 0.092968L14.2506 0.169178C14.248 0.171099 14.2448 0.171099 14.2422 0.17302C14.2397 0.174941 14.2378 0.176863 14.2346 0.178144L0.668596 8.01045C0.46984 8.12545 0.304224 8.28993 0.187851 8.48789C0.0714777 8.68585 0.00830765 8.91055 0.0044829 9.14015L0 9.13758V17.2799L0.0134487 17.2722C-0.0166509 17.5456 0.032661 17.8306 0.180597 18.0874C0.189563 18.1028 0.201091 18.1143 0.210697 18.129L17.3835 47.8739C17.4001 47.9091 17.4117 47.9456 17.4315 47.9802C17.6042 48.2781 17.8853 48.4978 18.2161 48.5934C18.5469 48.6889 18.9018 48.653 19.2068 48.4932L19.21 48.4983L40.0011 36.4949L39.9915 36.4789ZM11.5986 11.1049C11.1746 11.3497 10.6876 11.4633 10.199 11.4313C9.71052 11.3993 9.24247 11.2231 8.85407 10.925C8.46568 10.627 8.17439 10.2205 8.01705 9.75686C7.85971 9.29326 7.84339 8.79341 7.97014 8.32053C8.09689 7.84765 8.36103 7.42298 8.72914 7.10022C9.09726 6.77747 9.55283 6.57112 10.0382 6.50729C10.5236 6.44346 11.017 6.525 11.4561 6.74161C11.8951 6.95821 12.2601 7.30015 12.5048 7.72418C12.6675 8.00561 12.7731 8.31636 12.8156 8.63864C12.8581 8.96093 12.8367 9.28843 12.7525 9.60242C12.6684 9.91641 12.5231 10.2107 12.3251 10.4686C12.1271 10.7264 11.8802 10.9426 11.5986 11.1049Z" fill="#4BBD99"/>
</svg>
