<svg width="55" height="49" viewBox="0 0 55 49" fill="none" xmlns="http://www.w3.org/2000/svg">
<path d="M48.125 11.6354H5.15625V10.0785L42.9688 7.33842V10.0785H48.125V5.40792C48.125 1.98283 45.0622 -0.420966 41.3222 0.0616601L6.80625 4.52673C3.06281 5.01248 0 8.21027 0 11.6354V42.7726C0 44.4242 0.724328 46.0082 2.01364 47.176C3.30295 48.3439 5.05164 49 6.875 49H48.125C49.9484 49 51.697 48.3439 52.9864 47.176C54.2757 46.0082 55 44.4242 55 42.7726V17.8628C55 16.2112 54.2757 14.6272 52.9864 13.4593C51.697 12.2915 49.9484 11.6354 48.125 11.6354ZM42.9688 33.4501C42.2914 33.4499 41.6207 33.3288 40.995 33.0938C40.3693 32.8589 39.8008 32.5145 39.322 32.0805C38.8432 31.6466 38.4635 31.1314 38.2045 30.5645C37.9455 29.9975 37.8123 29.3899 37.8125 28.7764C37.8127 28.1628 37.9464 27.5553 38.2058 26.9886C38.4652 26.4218 38.8453 25.9068 39.3245 25.4731C39.8036 25.0394 40.3723 24.6955 40.9982 24.4609C41.6241 24.2262 42.2948 24.1056 42.9722 24.1058C44.3402 24.1062 45.6519 24.5989 46.6189 25.4753C47.5859 26.3518 48.1289 27.5404 48.1284 28.7795C48.128 30.0186 47.5841 31.2068 46.6165 32.0827C45.6489 32.9586 44.3367 33.4505 42.9688 33.4501Z" fill="#4BBD99"/>
</svg>
